# xmcd
#
# Track frame offsets: 
#        150
#        35900
#        52543
#        76567
#        96313
#        125984
#        140119
#        155627
#        182018
#        196214
#        211934
#        227236
#        250074
#        279084
#        297111
#        315589
#        336637
#
# Disc length: 4728 seconds
#
# Revision: 0
# Processed by: cddbd v1.5.2PL0 Copyright (c) Steve Scherf et al.
# Submitted via: ExactAudioCopy v0.99pb5
#
DISCID=f8127611
DTITLE=Various Artist - 1000% blues 
DYEAR=2002
DGENRE=Blues
TTITLE0=John Mayall and The Bluesbreakers - he Mists Of Time
TTITLE1=Oscar Benton -Bensonhurst blues
TTITLE2=Albert Collins -Cold, Cold Feeling
TTITLE3=Tinsley Ellis -To The Devil For A Dime
TTITLE4=Oscar Benton -Today is yesterday's tomorrow
TTITLE5=Taj Mahal -Here In The Dark
TTITLE6=Buddy Guy feat. Tracy Chapman -Ain't No Sunsihine
TTITLE7=John Mayall and The Bluesbreakers - Demons In The Night
TTITLE8=Taj Mahal -That's How Strong My Love Is
TTITLE9=Joe Cocker -Night Calls
TTITLE10=B.B.King -Summer In The City
TTITLE11=Diane Schuur and B. B. King -Spirit in the Dark
TTITLE12=Eric Clapton -Old Love
TTITLE13=John Mayall and The Bluesbreakers - I Thought I Heard The Devil
TTITLE14=Buddy Guy feat. Carlos Santana -I Put A Spell On You
TTITLE15=Joe Cocker -Now That the Magic Has Gone
TTITLE16=John Mayall and The Bluesbreakers - Kids Got The Blues
EXTD=
EXTT0=
EXTT1=
EXTT2=
EXTT3=
EXTT4=
EXTT5=
EXTT6=
EXTT7=
EXTT8=
EXTT9=
EXTT10=
EXTT11=
EXTT12=
EXTT13=
EXTT14=
EXTT15=
EXTT16=
PLAYORDER=
